<svg width="585" height="221" viewBox="0 0 585 221" fill="none" xmlns="http://www.w3.org/2000/svg">
<g clip-path="url(#clip0_53_29)">
<path d="M114.6 216.5C111.5 219 108.1 219.9 102.3 219.9H89.6V168.7H98.9C104.3 168.7 107.8 169.7 110.5 171.9C113.5 174.3 115.2 178.3 115.2 182.5C115.2 186.9 113.7 190 110.1 192.5C116.2 194.3 119.8 199.1 119.8 205.5C119.8 209.9 117.9 213.8 114.6 216.5ZM99.7 174H95.2V191.3H99.5C106.3 191.3 109.5 188.4 109.5 182.5C109.6 176.9 106.3 174 99.7 174ZM109.8 197.8C107.8 196.6 105.2 196.2 101 196.2H95.2V214.7H101.7C106.5 214.7 108.5 214.2 110.7 212.5C112.8 210.8 114 208.2 114 205.4C114.1 202.2 112.3 199.2 109.8 197.8Z" fill="white"/>
<path d="M177.4 220V168.7H183.2V214.7H197.2V220H177.4Z" fill="white"/>
<path d="M295.1 220L289 205.5H267.1L261 220H254.8L278.3 166.3L301.3 220H295.1ZM278.3 179.6L269.5 200.1H286.8L278.3 179.6Z" fill="white"/>
<path d="M385.6 220.9C371 220.9 359 209 359 194.6C359 180 371 167.9 385.7 167.9C391.5 167.9 395.7 169.3 400.9 173V180.1C395.9 175.3 391.2 173.3 385.3 173.3C374.2 173.3 364.7 183 364.7 194.4C364.7 206.1 374 215.5 385.4 215.5C391.1 215.5 395.9 213.4 400.8 208.8V215.9C395.9 219.3 391.1 220.9 385.6 220.9Z" fill="white"/>
<path d="M486.7 220L465.8 196.5L464.3 197.9V220H458.6V168.7H464.3V190.7L486.1 168.7H493.8L469.8 192.6L494.5 220H486.7Z" fill="white"/>
<path d="M503.1 166.3C505.1 166.3 506.9 167.9 506.9 170C506.9 172.1 505.2 173.8 503.1 173.8C501.1 173.8 499.4 172.2 499.4 170C499.4 167.9 501.1 166.3 503.1 166.3ZM503.1 173.2C504.8 173.2 506.2 171.8 506.2 170C506.2 168.2 504.8 166.8 503.1 166.8C501.4 166.8 500 168.2 500 170C500.1 171.9 501.4 173.2 503.1 173.2ZM501.7 167.8H503.4C504.4 167.8 504.9 168.2 504.9 169.1C504.9 169.9 504.4 170.2 503.7 170.3L505 172.2H504.3L503.1 170.3H502.4V172.2H501.7V167.8ZM502.4 169.8H503.1C503.7 169.8 504.3 169.8 504.3 169.1C504.3 168.5 503.8 168.4 503.3 168.4H502.4V169.8Z" fill="white"/>
<path d="M397.1 38L383.1 45.3L383.7 46.6C385 46.2 386.8 46.6 387.7 47.6C388.6 48.7 389.5 50.5 388.9 54.6C387.9 61.7 378.3 77.6 360.4 95.7L362.8 43L348.5 44.8H331.2L338.1 23.8H337C333.3 26.8 326 30.6 320.8 31.7L316.4 44.7H308.9L306.9 50.9H314.4L302.8 86.3C301.7 89.8 301 92.9 300.7 95.4C297.4 97.2 290.9 100.6 288.5 100.6C287 100.6 285.9 100.1 285.3 99.2C283.7 96.9 284.9 92.8 285.5 91.2L302.2 42.8L279.6 46.7L279.4 48.3C281.6 47.9 283 48.3 283.8 49.4C284.6 50.5 284.5 52.3 283.7 54.8L276.2 76.2C269.3 95.8 256.6 100.3 252.7 100.3C250.8 100.3 249.4 99.7 248.6 98.5C247.5 96.9 247.5 94.4 248.6 91.4L266.3 42.5L243.3 46.7L243.1 48.3L244.3 48.2C245.7 48.2 246.7 48.6 247.2 49.3C248.1 50.5 247.9 52.7 246.7 56.3L234.3 91.2C233.7 92.8 233.4 94.6 233.4 96.2C230.7 97.7 224.9 101 222.4 101C221 101 220 100.5 219.4 99.6C217.9 97.5 218.9 93.6 219.4 92.2L234.8 46.1C231.3 44.7 222.8 43 217.5 43C183.2 43 168.1 74.3 166.5 85.7C166.2 87.6 166.1 89.7 166.2 91.5C154.5 99.1 141.9 101.9 134.7 101.9C131.7 101.9 129.5 101.1 128.1 99.4C126.4 97.4 125.8 94.3 126.4 89.9C126.9 86.7 128.2 82.8 128.2 82.8C166.9 80.1 171.9 60.4 172.4 56.5C173 52.6 172.1 49.1 169.9 46.6C167.5 43.8 163.6 42.3 158.7 42.3C128.5 42.3 114 74.3 112.4 85.4C111.4 92.3 112.6 97.7 116 101.7C120.8 107.3 128.4 107.9 131.5 107.9C141.2 107.9 153.3 103.4 166.6 94.8C168.3 102.8 173.9 107.8 181.8 107.8C194.1 107.8 201.5 98.8 204.3 95.3C203.8 97.1 203.5 98.5 203.3 100.1C203 102.7 203.3 104.6 204.5 106C205.7 107.4 207.6 108 210.2 108C215.4 108 225.8 104.7 233.8 99.5C235.2 104.5 239.8 107.8 245.8 107.8C257.6 107.8 266.5 99.4 271.9 92.4L273.1 90.8L272.4 92.7C270.2 98.3 269.9 102.6 271.7 105.2C272.9 106.9 274.9 107.9 277.6 107.9C283.3 107.9 294.9 102.6 300.8 99C301.5 104.7 305.6 107.9 313.2 107.9C318.7 107.9 327.9 103 331.8 99.4L332.5 96.2C329.9 98.1 324.3 100.9 319.6 100.9C317.8 100.9 316.5 100.3 315.7 99.2C314.5 97.5 314.8 95 315.4 93.1L329.3 51.1H344.2C346.1 52.2 347 55.4 347 61.5L346.6 109.7C338.2 117.9 332.1 122.4 323.9 122.4C321.7 122.4 319.5 122.1 317.1 121.4C311.8 119.9 308.4 116.3 307.7 114.2C307.5 113.5 307.2 113.5 307 113.5C306.5 113.5 306.1 114 305.9 114.8C304.7 119.1 304.2 126.7 313.6 130.3C316.2 131.3 318.9 131.6 321.8 131.4C324.9 131.1 328.3 130 333.1 127.9C342.3 123.6 362.9 101.8 362.9 101.8C385.6 79.1 398.5 60.9 400.1 49.4C401.2 41.9 397.8 38.6 397.1 38ZM154.2 47C155.7 47 156.9 47.5 157.7 48.4C159 49.9 159.4 52.6 158.8 56.4C158.2 60.4 151 76.7 130.3 77.7C132.3 71 143.3 47 154.2 47ZM208.9 78.7C205.1 89.6 196.7 101.3 187 101.3C186.3 101.3 184.5 101.1 183 99.4C181.2 97.4 180.7 94 181.3 89.5C182.5 81.4 191.9 48.7 214 48.7C215.7 48.7 218.2 49.5 218.7 50L208.9 78.7ZM88.5 64.7C105.4 62.6 121.3 56.9 124.8 39.8C127.4 27 114.3 13.3 92.8 10.2C96 6.70001 99.3 3.80001 102.7 1.90001L102.2 0.700012C96.2 1.60001 89.7 5.20001 84.5 9.20001C62.4 8.60001 28.2 16.2 9.49999 38.6C2.59999 46.9 -3.30001 60.1 3.09999 70C6.19999 74.9 11.7 77.4 18.8 77.4C23 77.4 27.6 76.5 32.1 74.7L31.8 73.4H30.6C25.1 73.4 20.2 71.6 17.2 68.3C14.6 65.6 13.5 62 13.7 57.6C14.1 51.5 16.8 45.4 21.6 39.4C37.5 19.5 66 13.1 80 13C66.5 25.5 55.5 43.9 51.2 52.5C49 56.9 41.5 72.7 39.9 76C35.7 84.6 29.9 95 25.9 101.3C22.4 106.8 13.1 116.9 0.699991 120.2L0.999991 121.6C2.59999 121.4 4.29999 121.1 5.99999 120.8C22.1 117.8 32.4 112.3 41.7 102C48.4 94.5 52.6 87.7 57 77.7C61.1 68.6 68.3 51.9 72.5 43C77.4 32.9 83.4 22 90 13.7C103 15.8 113.9 22.7 110.8 38.4C108.4 50.4 94.9 60.8 79.9 61.9C79.1 62 73.3 62 71.1 62L69.8 65C73.1 65 75.1 65.1 76.7 65.3C90.7 66.8 96.8 76.4 91.7 90.9C86.1 106.7 68.4 118.2 43 108.2L40.8 110.4C47.9 114.4 59.6 117.1 69.7 117C87.4 116.8 104.2 109.5 106.6 93C108.3 81.3 103.9 71.8 88.5 64.7Z" fill="white"/>
<path d="M559.8 51.7001C577.6 52.2001 582.9 47.6001 582.9 47.6001L584.1 44C581.3 44.5 577.9 44.9 574.9 44.9C571.2 44.9 567.7 44.5001 564.4 44.1001C563.7 44.0001 563.1 44 562.5 43.9C566.2 32.9 568.6 25.5 569.1 23.8H568C564.3 26.8 557 30.6001 551.8 31.7001L547.6 44.1001C542.1 45.1001 540.5 46.1 536.5 49L534.8 53.6001C539.9 51.2001 542.3 50.4 545.3 50.9L533.7 86.4C532 91.7 530.1 99.2001 533.3 103.7C535.2 106.3 538.8 107.7 544 107.7C550.4 107.7 560 101.7 562.6 99.2001L563.3 96C560.7 97.9 555.1 100.7 550.4 100.7C548.6 100.7 547.3 100.1 546.5 99C545.3 97.4 545.5 94.8 546.2 92.9C546.1 92.8 553.1 71.5001 559.8 51.7001ZM518.9 41.4C508.4 41.4 496.4 48.3001 494.6 61.1001C493.6 68.4001 496.3 71.7001 501.1 77.6001C501.1 77.6001 503.9 81 504.6 81.9C509.4 87.8 511.2 90.0001 510.7 93.6001C510.1 98.0001 505.6 102.7 498.4 102.7C494 102.7 490.4 101.1 487.9 98C485.3 94.8 484.5 90.4 484.9 87.8H483.3L479.5 103.3C483.3 105.9 491.5 107.8 498.8 107.8C513.9 107.8 523.2 98.2001 524.5 88.6001C525.4 82.4001 521.9 77 516.1 70.3L515.6 69.7001C509.4 62.6001 506.8 59.6 507.5 55C508 51.6 511.3 46.5 518.6 46.5C521.9 46.5 524.5 47.5001 526.3 49.6001C529.2 52.9001 529 57.8001 528.8 59.1001H530.3L534.7 46C530.8 43.1 525.2 41.4 518.9 41.4ZM441.1 56.6001L448.4 45.5C446.6 44.1 441 42.9 437.8 42.9C429.7 42.9 424.4 49.8 421.2 53.9L419.7 55.8L424.2 42.3L403.1 46.2001L402.9 47.8L403.9 47.7001C405.3 47.7001 406.3 48.1 406.9 48.9C408.2 50.7 407.2 54.3 406 57.9L389.2 108L404.6 106.4C409.5 91.8 416.5 69.7 416.6 69.5C416.8 68.8 422.3 52.4 433.4 52.4C438.3 52.4 440.5 55.5001 441.1 56.6001ZM453 102C450 102 447.8 101.2 446.4 99.5C444.6 97.5 444.1 94.4 444.7 90C445.1 87.4 446.2 83.9 446.5 82.9C485.2 80.2 490.2 60.5 490.7 56.5C491.2 52.6 490.4 49.1001 488.2 46.6001C485.7 43.8001 481.9 42.3 477 42.3C446.8 42.3 432.3 74.3 430.7 85.4C429.7 92.3 430.9 97.7001 434.3 101.6C439.2 107.2 446.7 107.8 449.8 107.8C461.7 107.8 471.2 102.3 479.4 90.4L478 89.2001C470.3 97.8001 461.9 102 453 102ZM472.4 47C473.9 47 475.1 47.5 475.9 48.4C477.2 49.9 477.6 52.6 477 56.4C476.4 60.4 469.2 76.7001 448.5 77.7001C450.5 71.0001 461.5 47 472.4 47Z" fill="white"/>
</g>
<defs>
<clipPath id="clip0_53_29">
<rect width="585" height="221" fill="white"/>
</clipPath>
</defs>
</svg>
