<svg width="103" height="35" viewBox="0 0 103 35" fill="none" xmlns="http://www.w3.org/2000/svg">
<g clip-path="url(#clip0_33_2)">
<path d="M36.6562 0C32.6606 0 28.9809 1.34545 26.0389 3.60398C28.3834 2.25352 31.1002 1.47716 34.0001 1.47716C42.8248 1.47716 49.9785 8.63091 49.9785 17.4556C49.9785 26.2803 42.8248 33.4341 34.0001 33.4341C31.1002 33.4341 28.3834 32.6577 26.039 31.3073C28.981 33.5658 32.6606 34.9113 36.6562 34.9113C46.2966 34.9113 54.1117 27.0961 54.1117 17.4556C54.1117 7.81511 46.2966 0 36.6562 0Z" fill="#C69C6D"/>
<path d="M3.7192 16.2508H2.42466V21.2665H4.44648C5.95886 21.2665 6.79193 20.387 6.79193 18.7907C6.79193 17.1766 5.67216 16.2508 3.7192 16.2508ZM6.0483 13.9095C6.0483 12.7828 5.39841 12.1623 4.21773 12.1623H2.42466V15.8035H3.85523C5.29 15.8035 6.0483 15.1486 6.0483 13.9095ZM8.43216 18.7903C8.43216 20.6392 7.03443 21.6993 4.59659 21.6993L3.27136 21.6999H0V21.3897H0.125795C0.351136 21.3897 0.510455 21.3379 0.626477 21.2264C0.8075 21.0509 0.891932 20.7336 0.891932 20.2286V13.2008C0.891932 12.6975 0.8075 12.3802 0.625909 12.2022C0.511818 12.0928 0.357955 12.0394 0.156477 12.0394H0V11.7295H4.21773C6.36636 11.7295 7.5983 12.5253 7.5983 13.9132C7.5983 15.0803 6.5425 15.7924 5.38989 16.0349C7.3508 16.3079 8.43046 17.285 8.43216 18.7903Z" fill="black"/>
<path d="M15.4942 20.1034L15.5892 19.8881H15.8345V21.6996L12.3235 21.6998H9.34918V21.4178H9.46361C9.6685 21.4178 9.81327 21.3707 9.91884 21.2693C10.0833 21.1098 10.1601 20.8213 10.1601 20.3621V13.9718C10.1601 13.5143 10.0833 13.2258 9.9185 13.0642C9.81464 12.9647 9.67475 12.916 9.49145 12.916H9.34918V12.6343H12.3753V12.916H12.2266C12.0521 12.916 11.907 12.9677 11.806 13.0659C11.6412 13.2275 11.5644 13.516 11.5644 13.9735V21.2998L13.4315 21.3009C14.5513 21.3009 15.1488 20.9541 15.4942 20.1034Z" fill="black"/>
<path d="M22.1639 17.8901L20.6417 14.2751L19.3286 17.8901H22.1639ZM19.1383 21.6998H16.7054V21.4178H16.836C17.3015 21.4178 17.6339 21.1046 17.9143 20.4021L20.7931 12.6343H21.3936L21.4204 12.6946L24.7723 20.409C25.0392 20.984 25.32 21.2839 25.6827 21.38C25.7032 21.3859 25.726 21.3908 25.7539 21.3948C25.8023 21.4019 25.9343 21.4181 25.9761 21.4181L26.0231 21.4178V21.6996H22.6418V21.4175L22.7059 21.4178C22.8361 21.4178 22.9366 21.4158 22.9614 21.4127C23.1233 21.3922 23.2348 21.3367 23.3031 21.2432C23.4054 21.0992 23.3952 20.8644 23.2707 20.5259L22.3298 18.2853H19.1804L18.4611 20.2641C18.3081 20.7318 18.3001 21.0349 18.4356 21.2161C18.5362 21.3538 18.7133 21.4178 18.9926 21.4178H19.1383V21.6998Z" fill="black"/>
<path d="M34.1205 19.6658L34.0975 19.7623L33.7179 21.2807L33.6662 21.2981C33.3754 21.4044 33.0886 21.4978 32.9367 21.5351C32.4336 21.6583 31.8981 21.7803 31.367 21.8034C31.2711 21.808 31.1642 21.8099 31.0318 21.8099C30.2441 21.8099 29.1054 21.7024 28.1551 21.1906C27.6947 20.9418 27.2656 20.577 26.9141 20.1352C26.2772 19.3315 25.92 18.1712 25.9584 17.0317C26.0116 15.4009 26.877 13.928 28.2735 13.0915C29.0553 12.6264 29.972 12.5287 30.603 12.5287C30.7718 12.5287 30.9527 12.5364 31.1413 12.552C31.5237 12.5857 31.8999 12.6476 32.2589 12.7361C32.4593 12.7777 32.6644 12.8374 32.8627 12.8952L32.9139 12.91C32.9397 12.917 32.966 12.9245 32.9925 12.9322C33.0428 12.9464 33.0949 12.9615 33.1495 12.9755C33.3424 13.0283 33.4744 13.0181 33.5342 12.9461L33.5592 12.9157H33.8426V15.1989H33.5603L33.5364 15.1311C33.5108 15.0569 33.4767 14.9839 33.4409 14.9067L33.428 14.8789C33.1586 14.2973 32.8126 13.6617 32.2913 13.3569C31.8191 13.0841 31.2703 12.9339 30.7464 12.9339C29.8439 12.9339 29.098 13.2309 28.5284 13.8167C27.8177 14.5502 27.4308 15.7207 27.4666 17.0286C27.4876 17.858 27.6692 18.7212 27.9513 19.3381C28.2718 20.0374 28.6996 20.5589 29.2226 20.8869C29.4004 20.9984 29.5904 21.0941 29.7877 21.1711C30.1758 21.3166 30.6202 21.3934 31.073 21.3934C31.4142 21.3934 31.7445 21.3507 32.0552 21.2665C32.2919 21.2016 32.5344 21.0844 32.7967 20.9091C33.0146 20.7611 33.2263 20.5581 33.426 20.3051C33.5319 20.1711 33.6326 20.0192 33.7247 19.8535L33.8585 19.5935L34.1205 19.6658Z" fill="black"/>
<path d="M38.0574 21.6981H35.0307V21.4161H35.1451C35.3502 21.4161 35.495 21.3689 35.6009 21.2678C35.7654 21.108 35.8422 20.8194 35.8422 20.3606V13.9703C35.8422 13.5128 35.7654 13.2243 35.6004 13.0625C35.4965 12.9632 35.3568 12.9145 35.173 12.9145H35.0307V12.6325H38.0574V12.9145H37.9083C37.7342 12.9145 37.5885 12.9662 37.4877 13.0644C37.3231 13.226 37.2463 13.5145 37.2463 13.972V16.8064L40.1589 13.8744C40.6043 13.4255 40.8007 13.1322 40.743 13.0024C40.708 12.9259 40.5822 12.9142 40.5099 12.9142H40.4038V12.6328H42.4284V12.9142H42.2958C41.8272 12.9142 41.3422 13.2186 40.6221 13.9649C40.5987 13.9883 40.4325 14.1587 40.2026 14.3945L38.9383 15.6897C38.7143 15.9182 38.503 16.1337 38.4879 16.1517L38.4839 16.1557L38.4727 16.1665L41.6122 19.8575C41.6659 19.9131 41.731 19.9852 41.7988 20.0605L41.8347 20.0997C42.2039 20.5082 42.8913 21.2684 43.4973 21.3825L43.726 21.4249V21.6981H43.6248C43.6185 21.6981 43.5975 21.6981 43.5639 21.6984C43.4427 21.6986 43.1627 21.6998 42.8765 21.6998C42.4105 21.6998 42.1541 21.6964 42.0691 21.6895C41.9405 21.6793 41.8079 21.6508 41.6856 21.6078C41.3937 21.5094 41.0784 21.2756 40.7489 20.9128C40.3073 20.4234 39.9782 20.0473 39.7124 19.7292L39.4339 19.3943C39.1654 19.0702 38.9215 18.7807 38.6659 18.4833C38.3454 18.1083 38.0227 17.7236 37.7102 17.3518L37.708 17.3486L37.5032 17.1066L37.2463 17.384V20.3606C37.2463 20.8194 37.3231 21.108 37.4877 21.2682C37.5891 21.3677 37.728 21.4161 37.9134 21.4161H38.0574V21.6981Z" fill="black"/>
<path d="M65.3388 19.9441L65.4434 19.7074H65.7132V21.6995L61.8523 21.6999H58.5807V21.3897H58.7064C58.9321 21.3897 59.091 21.3379 59.2074 21.2264C59.3884 21.0509 59.4728 20.7336 59.4728 20.2286V13.2008C59.4728 12.6975 59.3881 12.3802 59.2072 12.2024C59.0927 12.0928 58.9389 12.0397 58.7372 12.0397H58.5807V11.7295H61.9092V12.0397H61.7453C61.5539 12.0397 61.394 12.0966 61.2827 12.2044C61.1017 12.3823 61.0173 12.6994 61.0173 13.2025V21.26L63.0706 21.2611C64.3019 21.2611 64.9592 20.8795 65.3388 19.9441Z" fill="#999999"/>
<path d="M67.6672 20.362V13.9718C67.6672 13.5143 67.5906 13.2258 67.4256 13.0642C67.3217 12.9647 67.1818 12.916 66.9985 12.916H66.856V12.6343H69.8827V12.916H69.7336C69.5594 12.916 69.4141 12.9677 69.3131 13.0659C69.1483 13.2275 69.0715 13.516 69.0715 13.9735V20.362C69.0715 20.8212 69.1483 21.1098 69.3131 21.2697C69.4143 21.3695 69.5535 21.4178 69.7384 21.4178H69.8827V21.6999H66.856V21.4178H66.9703C67.1756 21.4178 67.3203 21.3707 67.4261 21.2693C67.5906 21.1098 67.6672 20.8212 67.6672 20.362Z" fill="#999999"/>
<path d="M73.1576 13.102C73.0236 13.292 73.0401 13.6062 73.2066 14.0358L75.6969 20.1273L77.8109 14.0822C77.9394 13.6025 77.9341 13.2944 77.793 13.1117C77.6919 12.9802 77.5135 12.9162 77.2469 12.9162H77.0469V12.6345H79.4998V12.9162H79.306C78.7976 12.9162 78.5486 13.3202 78.3309 13.9268L75.6218 21.6998H74.8963L74.8699 21.6367L71.7177 13.9086C71.3961 13.2039 71.1171 12.9162 70.7546 12.9162H70.6436V12.6345H73.7708V12.9162H73.6051C73.3964 12.9162 73.2458 12.9789 73.1576 13.102Z" fill="#999999"/>
<path d="M81.1133 20.362V13.9718C81.1133 13.5143 81.0368 13.2258 80.8717 13.0642C80.7678 12.9647 80.628 12.916 80.4447 12.916H80.3022V12.6343H83.3289V12.916H83.1798C83.0056 12.916 82.8602 12.9677 82.7592 13.0659C82.5944 13.2275 82.5177 13.516 82.5177 13.9735V20.362C82.5177 20.8212 82.5944 21.1098 82.7592 21.2697C82.8604 21.3695 82.9997 21.4178 83.1845 21.4178H83.3289V21.6999H80.3022V21.4178H80.4165C80.6217 21.4178 80.7665 21.3707 80.8723 21.2693C81.0368 21.1098 81.1133 20.8212 81.1133 20.362Z" fill="#999999"/>
<path d="M90.7326 12.9163H90.5886V12.6343H92.675V12.9163H92.5293C92.337 12.9163 92.1995 12.9621 92.0968 13.0605C91.9609 13.1883 91.8709 13.5363 91.8622 13.9686L91.861 21.6998H91.2919L90.7457 20.9228L85.5476 13.835V20.3646C85.5476 20.8152 85.6247 21.1 85.7906 21.2614C85.899 21.3666 86.0386 21.4178 86.218 21.4178H86.3602V21.6998H84.2784V21.4178H84.3999C84.5988 21.4178 84.7416 21.3703 84.8485 21.268C85.013 21.1064 85.0895 20.8178 85.0895 20.3606V13.972C85.0895 13.5145 85.0127 13.2261 84.848 13.0642C84.7424 12.9635 84.6067 12.9163 84.4209 12.9163H84.2784V12.6343H86.3294L86.3599 12.6747L91.4055 19.5933L91.4013 13.9698C91.4013 13.5149 91.3244 13.2278 91.1597 13.0659C91.0561 12.9638 90.9201 12.9163 90.7326 12.9163Z" fill="#999999"/>
<path d="M102.272 17.3735V17.6555H102.141C101.956 17.6555 101.814 17.7064 101.704 17.8111C101.539 17.975 101.461 18.2672 101.461 18.7298V21.0469L101.406 21.0742C101.005 21.2887 100.219 21.5567 100.173 21.5707L99.9979 21.6216C99.52 21.748 98.9848 21.8117 98.4058 21.8117C96.7133 21.8117 95.3681 21.2412 94.5157 20.1618C93.8803 19.3566 93.5229 18.192 93.56 17.0466C93.6128 15.4092 94.479 13.932 95.8765 13.095C96.4973 12.7245 97.2936 12.5287 98.1799 12.5287C98.3532 12.5287 98.5287 12.5362 98.7165 12.5522C99.0909 12.5834 99.4668 12.6449 99.8341 12.7345C100.045 12.7783 100.264 12.8435 100.424 12.891L100.433 12.8935L100.605 12.9431C100.638 12.953 100.674 12.9641 100.711 12.972H100.713L100.722 12.9743C100.801 12.998 100.875 13.0102 100.936 13.0102C101.016 13.0102 101.074 12.9894 101.107 12.9484L101.134 12.9157H101.417V15.2075H101.135L101.112 15.1395C101.086 15.0678 101.052 14.9895 101 14.8792C100.73 14.298 100.384 13.6634 99.8668 13.3622C99.3976 13.087 98.8489 12.9353 98.3216 12.9353C97.42 12.9353 96.6745 13.2324 96.1067 13.8182C95.3951 14.5528 95.0056 15.7284 95.0383 17.0437C95.0593 17.8772 95.2415 18.7441 95.5248 19.3628C95.8454 20.0656 96.2731 20.5885 96.796 20.9166C97.3053 21.235 97.8874 21.4031 98.4798 21.4031C98.7698 21.4031 99.0619 21.3633 99.3484 21.2848C99.5965 21.2144 99.8384 21.1177 100.066 20.9972L100.08 20.99V18.7298C100.08 18.2675 100.001 17.9756 99.8318 17.8108C99.726 17.7061 99.584 17.6555 99.3982 17.6555H99.2657V17.3735H102.272Z" fill="#999999"/>
<path d="M94.6925 27.9075V28.9275H94.1525V27.39H96.965C96.8825 27.2025 96.785 27.0075 96.6875 26.8425L97.2575 26.6775C97.3925 26.8875 97.5425 27.1725 97.625 27.39H100.392V28.9275H99.83V27.9075H94.6925ZM99.41 29.4L99.8675 29.76C99.53 30.0375 99.1175 30.3375 98.7125 30.6075C99.0575 31.5975 99.77 32.445 100.707 32.805C100.587 32.91 100.422 33.12 100.347 33.2625C99.395 32.835 98.6825 31.965 98.2775 30.885C98.165 30.96 98.0375 31.035 97.925 31.095C98.18 32.0625 97.9925 32.985 97.5875 33.3C97.3475 33.5025 97.1525 33.5625 96.8225 33.5625C96.65 33.5625 96.4175 33.555 96.1775 33.5475C96.1775 33.39 96.1175 33.1725 96.035 33.0225C96.305 33.045 96.5525 33.06 96.71 33.06C96.905 33.06 97.0475 33.0375 97.19 32.9025C97.415 32.7375 97.55 32.22 97.4825 31.6125C96.6275 32.265 95.345 32.8875 94.2725 33.2175C94.2125 33.075 94.085 32.8725 93.98 32.745C95.18 32.4675 96.635 31.77 97.3775 31.095C97.325 30.9225 97.265 30.7425 97.175 30.57C96.44 31.0725 95.285 31.5975 94.3925 31.875C94.3325 31.755 94.2125 31.5525 94.1075 31.44C95.045 31.215 96.2975 30.6825 96.95 30.195C96.8525 30.0375 96.7325 29.895 96.59 29.7525C95.9225 30.1275 95.15 30.42 94.43 30.6375C94.3775 30.525 94.22 30.3 94.1225 30.195C95.0675 29.97 96.0875 29.595 96.8 29.1075H95.09V28.62H99.4025V29.1075H97.5425C97.3775 29.25 97.205 29.3775 97.01 29.505C97.355 29.85 97.6175 30.2475 97.775 30.645C98.345 30.2775 98.99 29.79 99.41 29.4Z" fill="#4E4440"/>
<path d="M87.65 29.7825H90.0425V28.95H87.6575V29.295C87.6575 29.4525 87.6575 29.61 87.65 29.7825ZM92.0375 27.63H87.6575V28.4475H92.0375V27.63ZM91.91 32.82V31.6575H88.7675V32.82H91.91ZM93.0125 30.285H90.59V31.1625H92.4575V33.5625H91.91V33.315H88.7675V33.5775H88.235V31.1625H90.0425V30.285H87.635C87.5675 31.395 87.365 32.6625 86.7575 33.585C86.6525 33.495 86.4125 33.3525 86.27 33.2925C87.035 32.13 87.1025 30.4875 87.1025 29.295V27.1275H92.5925V28.95H90.59V29.7825H93.0125V30.285Z" fill="#4E4440"/>
<path d="M82.565 31.5225H80.405V32.28H82.565V31.5225ZM83.1125 32.7225H80.405V33.0375H79.8575V31.08H83.1125V32.7225ZM85.565 30.015L85.5725 30.51H84.6875V32.9325C84.6875 33.255 84.6125 33.3975 84.3725 33.4875C84.14 33.57 83.765 33.5775 83.2025 33.5775C83.1725 33.4125 83.0825 33.2025 83 33.0525C83.4275 33.06 83.84 33.06 83.9675 33.06C84.08 33.0525 84.1175 33.03 84.1175 32.925V30.51H78.935V30.015H84.0275V27.5775H79.1075V27.0975H85.4225V27.5775H84.5975V30.015H85.565ZM82.6925 29.145V28.4325H80.39V29.145H82.6925ZM79.9025 28.0275H83.21V29.5425H79.9025V28.0275Z" fill="#4E4440"/>
<path d="M75.71 28.995L75.35 28.845C75.545 28.5225 75.8 28.0125 75.9275 27.66L76.3625 27.825C76.1525 28.23 75.905 28.695 75.71 28.995ZM73.1375 27.795L73.505 27.6675C73.7225 28.0125 73.9325 28.47 73.9925 28.7625L73.6025 28.9125C73.5425 28.62 73.34 28.1475 73.1375 27.795ZM72.7175 29.1H74.465V27.48H72.7175V29.1ZM76.7375 29.1V27.48H75.0125V29.1H76.7375ZM78.065 31.32V31.815H71.4425V31.32H74.465V30.645H72.0575V30.1875H74.465V29.5725H72.185V27.0075H77.2925V29.5725H75.0125V30.1875H77.435V30.645H75.0125V31.32H78.065ZM71.9675 33.6075L71.45 33.36C71.7875 33.075 72.1025 32.5725 72.2825 32.115L72.815 32.2425C72.6275 32.7225 72.3275 33.27 71.9675 33.6075ZM73.5575 32.3025L74.075 32.265C74.1725 32.6475 74.24 33.165 74.24 33.4575L73.6925 33.5325C73.6925 33.225 73.64 32.7075 73.5575 32.3025ZM75.095 32.3175L75.6125 32.2125C75.785 32.5875 75.9725 33.09 76.04 33.3975L75.4925 33.5325C75.425 33.2175 75.2525 32.7075 75.095 32.3175ZM76.61 32.2875L77.1125 32.115C77.48 32.4825 77.9 33.0225 78.1025 33.375L77.5625 33.585C77.3825 33.24 76.97 32.685 76.61 32.2875Z" fill="#4E4440"/>
</g>
<defs>
<clipPath id="clip0_33_2">
<rect width="102.386" height="35" fill="white"/>
</clipPath>
</defs>
</svg>
