<svg width="104" height="36" viewBox="0 0 104 36" fill="none" xmlns="http://www.w3.org/2000/svg">
<path d="M37.2267 0C33.1523 0 29.4001 1.372 26.4 3.67508C28.7908 2.29798 31.5612 1.5063 34.5183 1.5063C43.5171 1.5063 50.8119 8.80118 50.8119 17.7999C50.8119 26.7988 43.5171 34.0937 34.5183 34.0937C31.5612 34.0937 28.7908 33.302 26.4001 31.9249C29.4002 34.228 33.1523 35.6 37.2267 35.6C47.0574 35.6 55.0267 27.6307 55.0267 17.7999C55.0267 7.96929 47.0574 0 37.2267 0Z" fill="#C69C6D"/>
<path d="M3.73027 16.5347H2.43187V21.5653H4.4597C5.97659 21.5653 6.81214 20.6833 6.81214 19.0821C6.81214 17.4632 5.68903 16.5347 3.73027 16.5347ZM6.06629 14.1865C6.06629 13.0564 5.41447 12.434 4.23027 12.434H2.43187V16.0861H3.8667C5.30574 16.0861 6.06629 15.4293 6.06629 14.1865ZM8.45724 19.0818C8.45724 20.9362 7.05536 21.9994 4.61026 21.9994L3.28109 22H0V21.6889H0.12617C0.352181 21.6889 0.511973 21.637 0.628341 21.5251C0.809902 21.3491 0.894585 21.0309 0.894585 20.5244V13.4756C0.894585 12.9708 0.809902 12.6526 0.627771 12.474C0.513341 12.3644 0.359019 12.3108 0.156943 12.3108H0V12H4.23027C6.3853 12 7.6209 12.7982 7.6209 14.1901C7.6209 15.3608 6.56196 16.0749 5.40592 16.3181C7.37266 16.592 8.45553 17.572 8.45724 19.0818Z" fill="black"/>
<path d="M15.696 20.3071L15.7903 20.0935H16.0337V21.8906L12.5506 21.8908H9.60001V21.6111H9.71353C9.91678 21.6111 10.0604 21.5643 10.1651 21.4638C10.3282 21.3055 10.4045 21.0193 10.4045 20.5637V14.2244C10.4045 13.7706 10.3282 13.4843 10.1648 13.324C10.0618 13.2253 9.92298 13.177 9.74114 13.177H9.60001V12.8976H12.602V13.177H12.4545C12.2814 13.177 12.1375 13.2283 12.0372 13.3257C11.8738 13.486 11.7976 13.7722 11.7976 14.2261V21.494L13.6497 21.4951C14.7607 21.4951 15.3534 21.151 15.696 20.3071Z" fill="black"/>
<path d="M22.5149 18.1115L21.0049 14.5253L19.7023 18.1115H22.5149ZM19.5135 21.8908H17.1V21.6111H17.2295C17.6913 21.6111 18.021 21.3003 18.2992 20.6034L21.155 12.8976H21.7508L21.7774 12.9573L25.1025 20.6103C25.3673 21.1807 25.6459 21.4782 26.0057 21.5736C26.026 21.5794 26.0487 21.5843 26.0763 21.5882C26.1243 21.5953 26.2553 21.6113 26.2968 21.6113L26.3434 21.6111V21.8906H22.9891V21.6108L23.0526 21.6111C23.1818 21.6111 23.2815 21.6091 23.3061 21.606C23.4667 21.5856 23.5773 21.5306 23.645 21.4378C23.7466 21.295 23.7365 21.0621 23.6129 20.7263L22.6795 18.5036H19.5553L18.8417 20.4665C18.6898 20.9305 18.682 21.2312 18.8163 21.411C18.9162 21.5475 19.0918 21.6111 19.3689 21.6111H19.5135V21.8908Z" fill="black"/>
<path d="M34.6695 20.1284L34.6462 20.2262L34.2618 21.764L34.2094 21.7816C33.9149 21.8893 33.6244 21.984 33.4705 22.0217C32.961 22.1465 32.4187 22.2701 31.8807 22.2934C31.7836 22.298 31.6753 22.3 31.5412 22.3C30.7434 22.3 29.5902 22.1911 28.6277 21.6727C28.1614 21.4208 27.7269 21.0514 27.3708 20.6039C26.7258 19.7898 26.3639 18.6148 26.4028 17.4606C26.4567 15.8089 27.3332 14.3171 28.7476 13.4699C29.5394 12.9989 30.4679 12.9 31.107 12.9C31.2779 12.9 31.4611 12.9077 31.6522 12.9236C32.0395 12.9577 32.4204 13.0204 32.7841 13.11C32.987 13.1522 33.1947 13.2126 33.3956 13.2712L33.4475 13.2861C33.4736 13.2933 33.5002 13.3009 33.527 13.3086C33.578 13.323 33.6307 13.3383 33.6861 13.3524C33.8814 13.4059 34.0151 13.3956 34.0757 13.3227L34.101 13.2919H34.388V15.6043H34.1021L34.078 15.5357C34.0519 15.4606 34.0174 15.3866 33.9812 15.3084L33.9682 15.2802C33.6953 14.6912 33.3448 14.0475 32.8169 13.7388C32.3386 13.4624 31.7828 13.3103 31.2522 13.3103C30.3382 13.3103 29.5827 13.6111 29.0058 14.2044C28.286 14.9474 27.8941 16.1328 27.9303 17.4575C27.9516 18.2974 28.1355 19.1718 28.4213 19.7965C28.7459 20.5048 29.1792 21.0329 29.7088 21.3652C29.889 21.4781 30.0814 21.575 30.2812 21.6531C30.6742 21.8004 31.1244 21.8782 31.583 21.8782C31.9285 21.8782 32.2631 21.8349 32.5777 21.7496C32.8175 21.6839 33.0631 21.5652 33.3287 21.3877C33.5495 21.2378 33.7639 21.0321 33.9661 20.7759C34.0734 20.6403 34.1753 20.4864 34.2687 20.3186L34.4041 20.0552L34.6695 20.1284Z" fill="black"/>
<path d="M38.6026 21.8891H35.6V21.6094H35.7135C35.917 21.6094 36.0606 21.5625 36.1657 21.4623C36.3288 21.3037 36.405 21.0175 36.405 20.5623V14.2229C36.405 13.7691 36.3288 13.4829 36.1651 13.3223C36.0621 13.2238 35.9235 13.1756 35.7411 13.1756H35.6V12.8958H38.6026V13.1756H38.4547C38.282 13.1756 38.1375 13.2269 38.0375 13.3243C37.8741 13.4846 37.7979 13.7708 37.7979 14.2246V17.0364L40.6873 14.1278C41.1292 13.6824 41.324 13.3914 41.2668 13.2627C41.232 13.1868 41.1072 13.1752 41.0355 13.1752H40.9303V12.8961H42.9388V13.1752H42.8072C42.3423 13.1752 41.8612 13.4772 41.1468 14.2175C41.1236 14.2408 40.9588 14.4099 40.7307 14.6438L39.4765 15.9286C39.2543 16.1553 39.0446 16.3691 39.0296 16.3869L39.0257 16.3909L39.0146 16.4016L42.129 20.0632C42.1824 20.1183 42.247 20.1899 42.3141 20.2645L42.3498 20.3034C42.716 20.7087 43.3979 21.4629 43.9991 21.576L44.2261 21.6181V21.8891H44.1256C44.1194 21.8891 44.0986 21.8891 44.0652 21.8894C43.945 21.8897 43.6672 21.8908 43.3833 21.8908C42.921 21.8908 42.6667 21.8874 42.5823 21.8806C42.4547 21.8705 42.3232 21.8422 42.2019 21.7996C41.9123 21.702 41.5995 21.47 41.2726 21.1101C40.8345 20.6246 40.5081 20.2515 40.2444 19.9359L39.9681 19.6037C39.7017 19.2822 39.4598 18.995 39.2063 18.6999C38.8883 18.3279 38.5682 17.9463 38.2582 17.5775L38.2559 17.5743L38.0528 17.3342L37.7979 17.6094V20.5623C37.7979 21.0175 37.8741 21.3037 38.0375 21.4626C38.138 21.5614 38.2758 21.6094 38.4598 21.6094H38.6026V21.8891Z" fill="black"/>
<path d="M66.2722 20.3533L66.3786 20.1126H66.653V22.1384L62.7268 22.1388H59.4V21.8233H59.5278C59.7573 21.8233 59.919 21.7707 60.0373 21.6572C60.2214 21.4788 60.3072 21.1562 60.3072 20.6427V13.4961C60.3072 12.9843 60.221 12.6617 60.0371 12.4808C59.9207 12.3694 59.7642 12.3154 59.5591 12.3154H59.4V12H62.7847V12.3154H62.6181C62.4234 12.3154 62.2608 12.3732 62.1477 12.4829C61.9636 12.6638 61.8777 12.9863 61.8777 13.4978V21.6914L63.9657 21.6926C65.2179 21.6926 65.8863 21.3046 66.2722 20.3533Z" fill="#999999"/>
<path d="M68.64 20.7783V14.2802C68.64 13.8149 68.5621 13.5215 68.3943 13.3572C68.2887 13.256 68.1465 13.2065 67.9601 13.2065H67.8152V12.9201H70.893V13.2065H70.7414C70.5642 13.2065 70.4164 13.2591 70.3137 13.359C70.1461 13.5233 70.068 13.8167 70.068 14.2819V20.7783C70.068 21.2453 70.1461 21.5387 70.3137 21.7013C70.4167 21.8029 70.5582 21.852 70.7462 21.852H70.893V22.1388H67.8152V21.852H67.9314C68.1401 21.852 68.2873 21.804 68.3949 21.7009C68.5621 21.5387 68.64 21.2453 68.64 20.7783Z" fill="#999999"/>
<path d="M74.2232 13.3957C74.087 13.5889 74.1037 13.9084 74.273 14.3452L76.8054 20.5396L78.9551 14.3924C79.0858 13.9046 79.0804 13.5913 78.9368 13.4055C78.8341 13.2718 78.6527 13.2068 78.3816 13.2068H78.1782V12.9203H80.6725V13.2068H80.4755C79.9585 13.2068 79.7053 13.6176 79.4839 14.2344L76.729 22.1387H75.9912L75.9644 22.0745L72.759 14.2159C72.432 13.4992 72.1482 13.2068 71.7795 13.2068H71.6667V12.9203H74.8467V13.2068H74.6783C74.466 13.2068 74.3129 13.2704 74.2232 13.3957Z" fill="#999999"/>
<path d="M82.3132 20.7783V14.2802C82.3132 13.8149 82.2354 13.5215 82.0675 13.3572C81.9619 13.256 81.8197 13.2065 81.6333 13.2065H81.4884V12.9201H84.5662V13.2065H84.4146C84.2374 13.2065 84.0897 13.2591 83.9869 13.359C83.8194 13.5233 83.7414 13.8167 83.7414 14.2819V20.7783C83.7414 21.2453 83.8194 21.5387 83.9869 21.7013C84.0899 21.8029 84.2314 21.852 84.4194 21.852H84.5662V22.1388H81.4884V21.852H81.6046C81.8133 21.852 81.9605 21.804 82.0681 21.7009C82.2354 21.5387 82.3132 21.2453 82.3132 20.7783Z" fill="#999999"/>
<path d="M92.0951 13.2068H91.9487V12.9201H94.0703V13.2068H93.9221C93.7266 13.2068 93.5868 13.2533 93.4823 13.3534C93.3441 13.4834 93.2526 13.8372 93.2437 14.2769L93.2426 22.1387H92.6639L92.1084 21.3486L86.8225 14.141V20.7809C86.8225 21.2392 86.9009 21.5288 87.0696 21.6929C87.1798 21.7999 87.3218 21.852 87.5042 21.852H87.6488V22.1387H85.5319V21.852H85.6554C85.8576 21.852 86.0029 21.8037 86.1116 21.6996C86.2788 21.5352 86.3567 21.2418 86.3567 20.7768V14.2804C86.3567 13.8152 86.2786 13.5219 86.111 13.3572C86.0037 13.2548 85.8657 13.2068 85.6768 13.2068H85.5319V12.9201H87.6175L87.6485 12.9611L92.7793 19.9966L92.775 14.2781C92.775 13.8155 92.6969 13.5236 92.5293 13.359C92.4241 13.2551 92.2858 13.2068 92.0951 13.2068Z" fill="#999999"/>
<path d="M103.83 17.7393V18.026H103.697C103.508 18.026 103.363 18.0778 103.252 18.1843C103.084 18.3509 103.005 18.648 103.005 19.1185V21.4748L102.949 21.5025C102.541 21.7207 101.742 21.9932 101.695 22.0074L101.517 22.0591C101.031 22.1876 100.487 22.2525 99.8979 22.2525C98.1768 22.2525 96.8088 21.6724 95.9421 20.5747C95.296 19.7559 94.9326 18.5717 94.9702 17.4069C95.024 15.7418 95.9047 14.2397 97.3258 13.3885C97.9571 13.0118 98.7669 12.8127 99.6682 12.8127C99.8444 12.8127 100.023 12.8203 100.214 12.8365C100.595 12.8683 100.977 12.9308 101.35 13.022C101.565 13.0665 101.788 13.1328 101.951 13.1811L101.96 13.1836L102.134 13.234C102.167 13.2441 102.205 13.2554 102.242 13.2635H102.244L102.253 13.2658C102.334 13.2898 102.409 13.3023 102.471 13.3023C102.552 13.3023 102.611 13.2812 102.645 13.2394L102.672 13.2062H102.96V15.5367H102.674L102.65 15.4676C102.623 15.3947 102.589 15.3151 102.536 15.2029C102.261 14.6118 101.909 13.9665 101.384 13.6602C100.906 13.3804 100.348 13.2262 99.8123 13.2262C98.8954 13.2262 98.1374 13.5282 97.5599 14.1239C96.8363 14.871 96.4402 16.0664 96.4735 17.404C96.4949 18.2515 96.6801 19.133 96.9682 19.7622C97.2943 20.4768 97.7291 21.0086 98.2609 21.3422C98.7788 21.666 99.3707 21.8369 99.9731 21.8369C100.268 21.8369 100.565 21.7965 100.856 21.7166C101.109 21.6451 101.355 21.5468 101.586 21.4242L101.601 21.4169V19.1185C101.601 18.6484 101.52 18.3515 101.348 18.184C101.24 18.0775 101.096 18.026 100.907 18.026H100.772V17.7393H103.83Z" fill="#999999"/>
<path d="M96.3567 28.4199V29.5974H95.7333V27.8225H98.9801C98.8849 27.6061 98.7723 27.381 98.6597 27.1905L99.3178 27C99.4736 27.2424 99.6468 27.5714 99.742 27.8225H102.937V29.5974H102.287V28.4199H96.3567ZM101.803 30.1429L102.331 30.5584C101.941 30.8788 101.465 31.2251 100.997 31.5368C101.396 32.6796 102.218 33.658 103.3 34.0736C103.162 34.1948 102.971 34.4372 102.885 34.6017C101.785 34.1082 100.963 33.1039 100.495 31.8571C100.365 31.9437 100.218 32.0303 100.088 32.0996C100.383 33.2164 100.166 34.2814 99.6987 34.645C99.4216 34.8788 99.1965 34.948 98.8156 34.948C98.6165 34.948 98.3481 34.9394 98.071 34.9307C98.071 34.7489 98.0017 34.4978 97.9065 34.3247C98.2182 34.3506 98.5039 34.368 98.6857 34.368C98.9108 34.368 99.0753 34.342 99.2398 34.1861C99.4996 33.9957 99.6554 33.3983 99.5775 32.697C98.5905 33.4502 97.11 34.1688 95.8719 34.5498C95.8026 34.3853 95.6554 34.1515 95.5342 34.0043C96.9195 33.684 98.5991 32.8788 99.4563 32.0996C99.3957 31.9004 99.3264 31.6926 99.2225 31.4935C98.374 32.0736 97.0407 32.6796 96.0104 33C95.9411 32.8615 95.8026 32.6277 95.6814 32.4978C96.7636 32.2381 98.2095 31.6234 98.9628 31.0606C98.8502 30.8788 98.7117 30.7143 98.5472 30.5498C97.7766 30.9827 96.8849 31.3203 96.0537 31.5714C95.9931 31.4416 95.8113 31.1818 95.6987 31.0606C96.7896 30.8009 97.9671 30.368 98.7896 29.8052H96.8156V29.2424H101.794V29.8052H99.6468C99.4563 29.9697 99.2571 30.1169 99.032 30.2641C99.4303 30.6623 99.7333 31.1212 99.9152 31.5801C100.573 31.1558 101.318 30.5931 101.803 30.1429Z" fill="black"/>
<path d="M85.6437 30.5844H88.4056V29.6234H85.6524V30.0216C85.6524 30.2034 85.6524 30.3853 85.6437 30.5844ZM90.7087 28.0996H85.6524V29.0433H90.7087V28.0996ZM90.5615 34.0909V32.7489H86.9338V34.0909H90.5615ZM91.8342 31.1645H89.0377V32.1775H91.1935V34.948H90.5615V34.6623H86.9338V34.9653H86.3191V32.1775H88.4056V31.1645H85.6264C85.5485 32.4459 85.3147 33.9091 84.6134 34.974C84.4922 34.8701 84.2152 34.7056 84.0507 34.6363C84.9338 33.2944 85.0117 31.3983 85.0117 30.0216V27.5195H91.3493V29.6234H89.0377V30.5844H91.8342V31.1645Z" fill="black"/>
<path d="M76.8788 32.5931H74.3853V33.4675H76.8788V32.5931ZM77.5109 33.9784H74.3853V34.342H73.7533V32.0823H77.5109V33.9784ZM80.342 30.8528L80.3507 31.4243H79.329V34.2208C79.329 34.5931 79.2425 34.7576 78.9654 34.8615C78.697 34.9567 78.2641 34.9654 77.6148 34.9654C77.5801 34.7749 77.4762 34.5325 77.381 34.3593C77.8745 34.368 78.3507 34.368 78.4979 34.368C78.6277 34.3593 78.671 34.3333 78.671 34.2121V31.4243H72.6884V30.8528H78.5671V28.039H72.8875V27.4849H80.1775V28.039H79.2251V30.8528H80.342ZM77.026 29.8485V29.026H74.368V29.8485H77.026ZM73.8052 28.5585H77.6234V30.3074H73.8052V28.5585Z" fill="black"/>
<path d="M66.2264 29.6753L65.8109 29.5022C66.036 29.1299 66.3303 28.5411 66.4775 28.1342L66.9797 28.3247C66.7373 28.7922 66.4516 29.329 66.2264 29.6753ZM63.2568 28.2901L63.681 28.1429C63.9321 28.5411 64.1745 29.0693 64.2438 29.4069L63.7936 29.5801C63.7243 29.2424 63.4905 28.697 63.2568 28.2901ZM62.7719 29.7965H64.7892V27.9264H62.7719V29.7965ZM67.4126 29.7965V27.9264H65.4213V29.7965H67.4126ZM68.9451 32.3593V32.9307H61.3V32.3593H64.7892V31.5801H62.01V31.052H64.7892V30.342H62.1572V27.381H68.0533V30.342H65.4213V31.052H68.2178V31.5801H65.4213V32.3593H68.9451ZM61.9061 35L61.3087 34.7143C61.6983 34.3853 62.062 33.8052 62.2697 33.2771L62.8845 33.4242C62.668 33.9784 62.3217 34.6104 61.9061 35ZM63.7416 33.4935L64.339 33.4502C64.4516 33.8918 64.5295 34.4892 64.5295 34.8268L63.8974 34.9134C63.8974 34.5584 63.8368 33.961 63.7416 33.4935ZM65.5165 33.5108L66.1139 33.3896C66.313 33.8225 66.5295 34.4026 66.6074 34.7576L65.9754 34.9134C65.8974 34.5498 65.6983 33.961 65.5165 33.5108ZM67.2654 33.4762L67.8455 33.2771C68.2697 33.7013 68.7546 34.3247 68.9883 34.7316L68.365 34.974C68.1572 34.5758 67.681 33.9351 67.2654 33.4762Z" fill="black"/>
</svg>
