<svg width="150" height="150" viewBox="0 0 150 150" fill="none" xmlns="http://www.w3.org/2000/svg">
<rect width="150" height="150" rx="16" fill="white"/>
<path d="M94.7352 27.8772C83.8484 27.8772 73.8224 31.5434 65.806 37.697C72.1943 34.0174 79.5972 31.9017 87.4979 31.9017C111.543 31.9017 131.035 51.3939 131.035 75.4386C131.035 99.4833 111.543 118.976 87.4979 118.976C79.5972 118.976 72.1943 116.86 65.8068 113.18C73.8224 119.334 83.8484 123 94.7352 123C121.003 123 142.297 101.706 142.297 75.4386C142.297 49.1712 121.003 27.8772 94.7352 27.8772Z" fill="#C69C6D"/>
<path d="M16.0972 55.6673H13.0009V67.6647H17.8363C21.4542 67.6647 23.447 65.5609 23.447 61.7425C23.447 57.8821 20.7685 55.6673 16.0972 55.6673ZM21.6682 50.067C21.6682 47.3718 20.1137 45.8879 17.2894 45.8879H13.0009V54.5972H16.4222C19.8545 54.5972 21.6682 53.0308 21.6682 50.067ZM27.3708 61.7417C27.3708 66.1641 24.0272 68.7 18.1962 68.7L15.0262 68.7015H7.20081V67.9596H7.50203C8.04106 67.9596 8.42155 67.8359 8.69978 67.5688C9.13259 67.1487 9.33473 66.3901 9.33473 65.182V48.3722C9.33473 47.1681 9.13259 46.4095 8.6982 45.983C8.42551 45.7215 8.05691 45.5938 7.57495 45.5938H7.20081V44.8527H17.2894C22.4292 44.8527 25.3756 46.7559 25.3756 50.0757C25.3756 52.8676 22.8501 54.571 20.0931 55.1505C24.7835 55.8045 27.3661 58.1413 27.3708 61.7417Z" fill="black"/>
<path d="M44.2646 64.8831L44.4921 64.3679H45.0787V68.7007L36.6809 68.7015H29.5657V68.0269H29.84C30.3299 68.0269 30.6763 67.9144 30.9284 67.6718C31.3215 67.2905 31.5054 66.6001 31.5054 65.5014V50.2168C31.5054 49.122 31.3215 48.4324 30.9276 48.0456C30.6795 47.8078 30.3449 47.6912 29.9066 47.6912H29.5657V47.0175H36.8046V47.6912H36.4487C36.0317 47.6912 35.6845 47.8149 35.4427 48.0495C35.0488 48.4364 34.8649 49.126 34.8649 50.2207V67.7447L39.3309 67.7479C42.0094 67.7479 43.4386 66.9179 44.2646 64.8831Z" fill="black"/>
<path d="M60.2135 59.5888L56.5727 50.9413L53.432 59.5888H60.2135ZM52.9762 68.7016H47.1571V68.027H47.4694C48.5832 68.027 49.3774 67.2779 50.0488 65.5974L56.9349 47.0167H58.3713L58.4355 47.161L66.4528 65.614C67.0909 66.9893 67.7631 67.7067 68.6303 67.9366C68.6794 67.9509 68.7341 67.962 68.8007 67.9715C68.9165 67.9889 69.2319 68.0278 69.3326 68.0278L69.4444 68.027V68.7008H61.3566V68.0262L61.5096 68.027C61.8219 68.027 62.0621 68.0222 62.1207 68.0143C62.5083 67.9659 62.7755 67.8328 62.9388 67.6092C63.1837 67.2644 63.1591 66.7032 62.8611 65.8931L60.6106 60.5345H53.0769L51.3568 65.2676C50.9906 66.3861 50.9715 67.1106 51.2957 67.5442C51.5367 67.874 51.96 68.027 52.6283 68.027H52.9762V68.7016Z" fill="black"/>
<path d="M88.8138 63.836L88.7584 64.0667L87.8507 67.6988L87.7271 67.74C87.0311 67.9945 86.3454 68.218 85.9824 68.3076C84.779 68.6017 83.4981 68.8942 82.2274 68.9489C81.9983 68.96 81.7423 68.9647 81.426 68.9647C79.541 68.9647 76.8181 68.7071 74.5446 67.4832C73.4436 66.8887 72.417 66.0159 71.576 64.9593C70.0532 63.0362 69.1987 60.261 69.2899 57.5357C69.4175 53.6349 71.488 50.1114 74.8276 48.1106C76.6984 46.9977 78.8909 46.7646 80.4002 46.7646C80.8037 46.7646 81.2365 46.7829 81.6876 46.8201C82.6023 46.9002 83.502 47.0492 84.3613 47.2609C84.8401 47.36 85.3308 47.5026 85.8048 47.6414L85.9277 47.6762C85.9895 47.6937 86.0521 47.7111 86.1155 47.7294C86.236 47.7634 86.3605 47.7999 86.4913 47.8332C86.9526 47.9592 87.2681 47.9347 87.4116 47.7626L87.471 47.6897H88.1488V53.1514H87.4742L87.4163 52.9896C87.3553 52.8121 87.2736 52.6369 87.188 52.4522L87.1571 52.3856C86.5127 50.9944 85.6851 49.4741 84.4382 48.7456C83.3086 48.0932 81.9959 47.7333 80.7435 47.7333C78.5842 47.7333 76.7998 48.4444 75.438 49.845C73.7377 51.6001 72.8118 54.3998 72.8982 57.5278C72.9482 59.5119 73.3825 61.5769 74.0571 63.0521C74.8237 64.7246 75.847 65.9723 77.0979 66.7571C77.5236 67.0234 77.9778 67.2525 78.4494 67.4364C79.3777 67.7844 80.4407 67.9683 81.5243 67.9683C82.3407 67.9683 83.1303 67.8661 83.8738 67.6647C84.4398 67.5094 85.02 67.2295 85.647 66.8102C86.1686 66.4559 86.6752 65.9699 87.1524 65.3651C87.406 65.0449 87.647 64.681 87.8674 64.2855L88.1868 63.6632L88.8138 63.836Z" fill="black"/>
<path d="M98.2309 68.6975H90.9913V68.0229H91.2648C91.7554 68.0229 92.1018 67.9103 92.3547 67.6686C92.7487 67.2857 92.9318 66.596 92.9318 65.4982V50.2127C92.9318 49.1188 92.7487 48.4284 92.3539 48.0415C92.105 47.8037 91.7713 47.6872 91.3313 47.6872H90.9913V47.0134H98.2309V47.6872H97.8742C97.458 47.6872 97.1093 47.8117 96.8683 48.0463C96.4743 48.4323 96.2904 49.1228 96.2904 50.2175V56.9966L103.257 49.9836C104.324 48.9095 104.793 48.208 104.655 47.8981C104.571 47.715 104.27 47.6872 104.098 47.6872H103.843V47.0134H108.686V47.6872H108.369C107.248 47.6872 106.088 48.4149 104.366 50.2C104.309 50.2563 103.912 50.6638 103.362 51.2274L100.338 54.326C99.802 54.8722 99.2963 55.3882 99.2606 55.431L99.2511 55.4405L99.2242 55.4659L106.733 64.2949C106.863 64.428 107.018 64.6008 107.18 64.78L107.266 64.8743C108.149 65.8517 109.793 67.6701 111.243 67.9428L111.79 68.0443V68.6975H111.548C111.533 68.6975 111.482 68.6975 111.402 68.6983C111.112 68.6991 110.443 68.7014 109.758 68.7014C108.643 68.7014 108.03 68.6935 107.826 68.6769C107.519 68.6523 107.202 68.5841 106.909 68.4819C106.211 68.2464 105.457 67.6868 104.669 66.8188C103.612 65.6488 102.825 64.7491 102.19 63.9881L101.524 63.1867C100.881 62.4122 100.297 61.7194 99.6863 61.0076C98.9198 60.111 98.1477 59.1907 97.401 58.3013L97.3954 58.2942L96.9055 57.7147L96.2904 58.3782V65.4982C96.2904 66.596 96.4743 67.2857 96.8683 67.6693C97.1108 67.9072 97.443 68.0229 97.8869 68.0229H98.2309V68.6975Z" fill="black"/>
<path d="M23.9559 99.8376L24.2063 99.2716H24.8516V104.036L15.6168 104.037H7.79053V103.295H8.09175C8.63157 103.295 9.01127 103.172 9.2903 102.904C9.72311 102.485 9.92524 101.726 9.92524 100.518V83.7079C9.92524 82.5038 9.72231 81.7452 9.2895 81.3195C9.01603 81.0579 8.64743 80.9303 8.16468 80.9303H7.79053V80.1884H15.7523V80.9303H15.3607C14.9025 80.9303 14.5197 81.0667 14.2541 81.3243C13.8213 81.75 13.6192 82.5086 13.6192 83.7119V102.985L18.5307 102.988C21.4755 102.988 23.0482 102.075 23.9559 99.8376Z" fill="#999999"/>
<path d="M29.5285 100.837V85.5517C29.5285 84.4578 29.3454 83.7674 28.9506 83.3813C28.7025 83.1427 28.3672 83.0262 27.9289 83.0262H27.588V82.3524H34.8277V83.0262H34.4717C34.0548 83.0262 33.7068 83.1507 33.4658 83.3853C33.0718 83.7713 32.8879 84.4618 32.8879 85.5565V100.837C32.8879 101.936 33.0718 102.625 33.4658 103.008C33.7076 103.247 34.0405 103.363 34.4828 103.363H34.8277V104.037H27.588V103.363H27.8615C28.3522 103.363 28.6986 103.25 28.9522 103.008C29.3454 102.625 29.5285 101.936 29.5285 100.837Z" fill="#999999"/>
<path d="M42.6634 83.4718C42.3432 83.9268 42.3828 84.6774 42.7808 85.7056L48.737 100.276L53.7936 85.8165C54.1012 84.6687 54.0885 83.9315 53.7508 83.4947C53.509 83.1808 53.0826 83.0271 52.4452 83.0271H51.9664V82.3533H57.8339V83.0271H57.3702C56.1542 83.0271 55.5581 83.9941 55.0381 85.4448L48.5579 104.037H46.8219L46.7593 103.886L39.2192 85.4012C38.4503 83.7151 37.7828 83.0271 36.9156 83.0271H36.6501V82.3533H44.1299V83.0271H43.7336C43.2342 83.0271 42.8743 83.1769 42.6634 83.4718Z" fill="#999999"/>
<path d="M61.688 100.837V85.5517C61.688 84.4578 61.5049 83.7674 61.1101 83.3813C60.862 83.1427 60.5267 83.0262 60.0884 83.0262H59.7475V82.3524H66.9871V83.0262H66.6304C66.2143 83.0262 65.8663 83.1507 65.6253 83.3853C65.2305 83.7713 65.0474 84.4618 65.0474 85.5565V100.837C65.0474 101.936 65.2305 102.625 65.6253 103.008C65.8671 103.247 66.2 103.363 66.6423 103.363H66.9871V104.037H59.7475V103.363H60.021C60.5117 103.363 60.8581 103.25 61.1117 103.008C61.5049 102.625 61.688 101.936 61.688 100.837Z" fill="#999999"/>
<path d="M84.6997 83.027H84.3557V82.3524H89.3457V83.027H88.9977C88.5371 83.027 88.209 83.1364 87.9632 83.3718C87.6374 83.6778 87.4226 84.5101 87.4012 85.5446L87.3988 104.037H86.0378L84.7314 102.178L72.2973 85.2243V100.843C72.2973 101.921 72.482 102.602 72.8783 102.989C73.1375 103.24 73.4721 103.363 73.9009 103.363H74.241V104.037H69.2613V103.363H69.5522C70.0278 103.363 70.3695 103.249 70.6255 103.004C71.0187 102.618 71.2018 101.927 71.2018 100.834V85.5525C71.2018 84.4578 71.0179 83.7682 70.6239 83.3805C70.3719 83.1404 70.0468 83.027 69.6021 83.027H69.2613V82.3524H74.1673L74.2402 82.4491L86.3097 98.9981L86.2994 85.547C86.2994 84.4586 86.1155 83.7721 85.7215 83.3853C85.4734 83.1404 85.1484 83.027 84.6997 83.027Z" fill="#999999"/>
<path d="M112.301 93.6887V94.3633H111.988C111.545 94.3633 111.203 94.4845 110.943 94.735C110.546 95.1274 110.361 95.8266 110.361 96.9332V102.476L110.23 102.541C109.268 103.054 107.39 103.695 107.28 103.728L106.861 103.85C105.718 104.152 104.438 104.304 103.053 104.304C99.0038 104.304 95.7863 102.94 93.7475 100.358C92.2279 98.4321 91.3726 95.6466 91.4614 92.9071C91.5882 88.9904 93.6595 85.4566 97.0023 83.4543C98.487 82.5688 100.393 82.1003 102.512 82.1003C102.927 82.1003 103.346 82.1178 103.796 82.1558C104.691 82.2311 105.59 82.3778 106.469 82.5926C106.974 82.6972 107.497 82.8526 107.881 82.9668L107.902 82.9731L108.312 83.0912C108.391 83.115 108.479 83.1411 108.566 83.161H108.571L108.592 83.1657C108.782 83.2228 108.96 83.2521 109.105 83.2521C109.297 83.2521 109.435 83.2022 109.514 83.1039L109.578 83.0262H110.255V88.5077H109.581L109.525 88.3452C109.463 88.1731 109.383 87.9861 109.258 87.7221C108.611 86.3317 107.784 84.8145 106.547 84.094C105.425 83.4352 104.112 83.073 102.851 83.073C100.695 83.073 98.9111 83.7832 97.5532 85.1847C95.8513 86.9413 94.9191 89.7538 94.9976 92.9C95.0475 94.8936 95.4835 96.9672 96.1612 98.4472C96.9286 100.128 97.9511 101.379 99.202 102.163C100.42 102.925 101.812 103.327 103.23 103.327C103.923 103.327 104.622 103.232 105.307 103.044C105.901 102.876 106.479 102.644 107.024 102.356L107.058 102.339V96.9332C107.058 95.8274 106.868 95.129 106.463 94.735C106.21 94.4845 105.871 94.3633 105.426 94.3633H105.109V93.6887H112.301Z" fill="#999999"/>
</svg>
