<svg width="400" height="400" viewBox="0 0 400 400" fill="none" xmlns="http://www.w3.org/2000/svg">
<path d="M195.966 89.21C203.998 88.8358 212.047 89.4776 219.918 91.1212C246.343 96.7846 268.86 111.411 283.608 134.257C298.176 156.66 303.172 183.961 297.481 210.071C291.96 235.698 275.589 257.889 253.655 272.001C234.145 284.605 210.909 290.154 187.809 287.724C183.607 287.271 179.491 286.414 175.366 285.516L171.243 284.374C167.272 286.055 163.445 288.519 159.676 290.609C153.792 293.803 147.929 297.036 142.087 300.307C138.355 302.423 134.458 305.001 130.413 306.442C129.333 306.827 128.258 306.904 127.135 306.658C125.36 306.25 123.831 305.133 122.904 303.565C122.239 302.464 121.917 301.19 121.979 299.904C122.188 295.834 124.091 290.21 125.069 286.122L131.119 260.423C130.551 259.942 129.99 259.452 129.438 258.953C111.093 242.398 101.031 217.364 99.7881 192.965C98.6048 166.541 107.993 140.734 125.877 121.246C143.791 101.439 169.514 90.5188 195.966 89.21ZM170.231 184.757C169.089 177.19 162.037 171.976 154.468 173.103C146.878 174.233 141.646 181.309 142.791 188.897C143.936 196.485 151.022 201.703 158.608 200.543C166.173 199.387 171.373 192.324 170.231 184.757ZM256.367 185.731C255.785 178.056 249.082 172.312 241.408 172.913C233.761 173.512 228.04 180.188 228.621 187.837C229.201 195.486 235.864 201.223 243.515 200.66C251.191 200.096 256.95 193.405 256.367 185.731ZM213.482 185.204C212.629 177.578 205.77 172.076 198.141 172.898C190.468 173.726 184.928 180.632 185.786 188.302C186.644 195.971 193.573 201.483 201.238 200.595C208.861 199.711 214.335 192.83 213.482 185.204Z" fill="white"/>
<path d="M68.5149 128.483C70.3455 124.148 72.9204 119.91 75.375 115.904C88.4435 94.561 106.934 77.062 128.964 65.1884C164.087 46.4457 205.214 42.4125 243.308 53.9754C273.771 63.141 300.35 82.119 318.909 107.956C323.66 114.593 327.537 121.505 331.395 128.681C336.19 128.643 341.471 130.02 345.938 131.725C358.698 136.598 367.606 145.674 373.144 158.064C381.135 179.591 383.008 201.143 373.144 225.274C372.356 226.692 371.738 228.236 370.988 229.682C369.103 233.35 366.767 236.769 364.04 239.862C354.45 250.624 342.87 254.927 328.743 255.717C327.803 257.285 326.986 258.937 326.065 260.52C324.178 263.714 322.195 266.851 320.117 269.924C297.759 302.745 265.694 325.788 226.432 333.216C226.221 334.158 225.964 335.089 225.661 336.005C223.677 341.996 219.727 347.018 214.018 349.848C211.756 350.97 209.339 351.747 206.848 352.154C204.046 352.607 201.181 352.426 198.355 352.427C192.628 352.43 186.735 352.968 181.223 351.074C175.438 349.087 170.684 344.875 168.015 339.371C165.248 333.545 164.919 326.855 167.102 320.786C169.143 315.103 173.611 310.538 179.058 308.018C180.87 307.18 182.835 306.526 184.807 306.204C188.428 305.614 192.083 305.803 195.736 305.786C199.146 305.77 202.63 305.622 206.025 305.98C208.086 306.197 210.14 306.595 212.087 307.315C217.983 309.493 222.218 314.013 224.805 319.653C235.965 317.985 247.128 314.056 257.167 308.956C289.54 292.539 314.1 263.979 325.484 229.513C335.709 198.107 333.899 162.927 318.76 133.348C303.039 102.093 275.448 78.4443 242.157 67.6889C207.364 56.3376 169.475 59.379 136.937 76.1347C106.822 91.7516 84.0554 118.584 73.5509 150.84C64.7479 178.402 65.3914 210.32 76.6272 237.124C77.7111 239.709 78.9852 242.129 80.2608 244.619C81.2914 246.631 82.1613 248.526 81.3522 250.821C80.7946 252.402 79.5414 253.479 78.0276 254.122C71.6456 256.834 59.3056 254.512 52.9741 251.953C39.0899 246.342 31.1593 236.71 25.4385 223.235C18.5852 201.724 18.1698 180.543 25.4385 159.784C26.2439 158.473 26.7909 156.831 27.4559 155.432C28.9362 152.319 30.7762 149.39 32.9381 146.705C41.8732 135.608 54.5673 129.94 68.5149 128.483ZM203.409 339.232C206.444 339.041 209.264 337.926 211.306 335.605C213.013 333.664 213.97 331.031 213.804 328.444C213.636 325.734 212.378 323.207 210.318 321.438C206.485 318.165 201.389 318.685 196.693 318.784C194.574 318.816 192.455 318.808 190.337 318.76C186.913 318.981 183.659 319.813 181.319 322.516C179.594 324.497 178.726 327.081 178.904 329.702C179.09 332.424 180.382 334.952 182.48 336.696C186.276 339.863 191.346 339.336 195.96 339.27C198.443 339.242 200.926 339.229 203.409 339.232Z" fill="white"/>
</svg>
