<svg width="400" height="400" viewBox="0 0 400 400" fill="none" xmlns="http://www.w3.org/2000/svg">
<path d="M11 189C15 189 19.8447 189.048 24.0839 189.057L44.9087 189.044L114.515 189.042L217.622 189.055L252.752 189.068C259.17 189.085 265.593 189.092 272.014 189.249C274.236 189.304 276.249 189.926 278.039 191.343C284.54 196.491 283.21 203.198 283.146 210.741L283.124 227.985L283.144 288.783L283.165 342.493C283.173 347.244 283.173 363.337 283.17 377.294C283.168 389.837 272.999 400 260.457 400H28.7496C12.8716 400 0 387.128 0 371.25V200C0 193.925 4.92487 189 11 189ZM210.971 268.624C211.816 261.687 211.442 252.883 211.152 245.903C210.963 241.344 205.379 236.508 200.971 236.374C184.509 235.874 188.853 251.648 188.181 261.99C186.494 287.97 164.185 307.891 138.259 306.692C130.177 306.001 120.377 302.362 113.614 298.087C111.741 296.904 104.09 288.759 102.442 286.656C97.9923 280.983 94.6703 268.92 94.2273 261.91C93.5873 251.792 96.9937 239.641 84.1767 236.314C83.4907 236.14 81.4463 236.307 80.6657 236.348C77.158 237.31 74.072 239.309 72.1873 242.629C70.0123 246.46 70.854 250.365 70.6377 254.715C69.906 269.423 73.7347 283.527 80.7527 296.379C82.138 298.917 85.0763 301.477 86.7327 303.941C88.08 305.371 89.697 308.605 91.2427 309.711C96.096 313.185 100.542 317.937 105.798 320.732C126.104 331.53 148.555 333.913 169.581 323.634C171.992 322.455 174.943 321.835 177.251 320.214C184.47 314.979 191.432 309.542 196.867 302.362C200.125 298.057 202.638 292.95 205.222 288.218C207.113 284.636 209.075 278.766 210.119 274.794C210.454 273.518 210.691 270.199 210.971 268.624Z" fill="white"/>
<path fill-rule="evenodd" clip-rule="evenodd" d="M262.5 1C266.5 1.5 272.771 1.94531 276 3C282.271 4.44531 288.055 6.9009 293.271 10.0742C294.745 10.9708 296.619 11.5163 298.058 12.5107C302.326 15.8592 306.383 19.6134 310.318 23.3408C312.25 25.17 313.708 28.0993 315.365 30.0312C319.455 34.7999 321.69 39.4494 323.654 45.3779C324.867 49.0395 326.419 52.8709 327.172 56.7285C329.227 66.6091 328.541 77.4738 328.629 87.5371C328.648 89.7066 327.811 93.6409 329.24 95.1582C330.027 95.9925 331.027 95.9097 332.103 95.915L373.687 95.8066C378.96 95.8176 385.647 95.5524 390.773 96.1641C394.5 96.6095 395.56 99.5806 400 100.642V378.123C400 390.279 390.279 400 378.123 400H296.434C296.507 396.957 300.357 390.47 301.769 387.486C306.982 376.47 306.672 366.233 306.64 354.363L306.608 334.106L306.615 220.899C306.595 217.068 306.617 213.236 306.681 209.404L306.684 209.28C306.873 200.286 307.031 192.707 302.231 184.641C301.169 182.856 299.186 179.246 297.73 177.809C293.661 173.791 288.193 169.446 282.708 167.596C277.362 166.089 269.053 166.443 263.405 166.448L133.854 166.469C128.515 166.474 121.581 166.882 116.278 165.951C115.502 165.815 115.705 162.021 115.763 161.236C116.085 156.819 116.011 152.368 116.014 147.934L116.005 120.307C115.998 115.538 115.142 105.093 117.763 101.333C119.413 98.9204 121.86 97.1647 124.674 96.3721C127.945 95.4848 140.162 95.784 144.126 95.79L175.77 95.8047C179.452 95.804 183.225 96.063 186.861 95.71C188.336 95.5666 188.12 93.528 188.136 92.3057C188.286 80.6393 187.82 69.1104 189.091 57.4824C190.253 46.84 195.859 37.8895 201.416 29.0166L201.47 28.9307C203.285 25.7678 206.18 23.5815 208.574 21.0186C218.099 10.8233 230.561 4.93549 243.994 2.19141C248 1.37311 249 1.5 251.5 1H262.5ZM275.522 27.0303C270.008 24.7035 261.373 23.2553 255.397 23.71C253.562 23.9538 247.74 24.8344 246.001 25.3555C238.789 27.517 228.828 33.002 223.8 38.8047C222.917 39.8233 221.841 41.7927 221.001 42.9131C219.721 44.6189 218.479 46.0924 217.366 47.9072C210.919 58.4191 211.145 67.8696 211.186 79.7178L211.214 88.6719C211.22 91.391 210.882 93.2608 212.098 95.7969C217.33 96.0235 223.633 95.8127 228.982 95.8057L288.672 95.7939C293.231 95.7976 297.809 95.8547 302.352 95.8037C304.172 95.7834 305.537 95.6056 305.447 93.4746C305.14 86.1457 305.275 78.8319 305.212 71.5C305.191 69.034 304.663 66.4033 304.523 63.9326C303.665 57.8335 300.327 50.1567 297.476 44.7451C296.613 43.1071 289.132 35.591 287.526 34.1953C285.516 32.4478 277.929 28.0458 275.522 27.0303Z" fill="white"/>
<path d="M0 370.037C0.457817 370.437 1.10913 371.1 1.64844 371.243C1.78178 370.8 1.74991 370.926 1.7666 370.457C2.28999 371.298 2.20617 374.704 2.2002 375.9C1.2717 376.174 0.989929 376.143 0 376.17V370.037Z" fill="white"/>
</svg>
