<svg width="400" height="400" viewBox="0 0 400 400" fill="none" xmlns="http://www.w3.org/2000/svg">
<path d="M30.2509 199.879L93.0962 199.957L110.682 199.895C113.78 199.879 116.895 199.774 119.992 199.925C123.065 200.075 124.885 200.673 126.884 203.063C127.287 205.233 127.332 206.507 127.344 208.699L127.335 234.122C127.348 237.922 127.366 241.823 127.363 245.609C127.357 252.842 125.316 254.801 118.408 254.726L54.2478 254.59C48.3532 254.571 42.4585 254.584 36.5638 254.629C32.8518 254.667 25.7585 255.586 22.8603 253.165C20.0059 250.781 20.9601 244.725 20.9794 241.222L20.9603 225.755L20.9247 213.384C20.8391 204.075 19.4594 200.096 30.2509 199.879Z" fill="white"/>
<path d="M59.2116 142.564C60.6716 142.523 62.1819 142.536 63.6489 142.547C72.3379 142.613 81.0596 142.392 89.7379 142.632C90.5829 142.656 91.9566 143.564 92.6829 144.018C93.0483 147.209 92.8656 149.841 92.8386 153.023L92.7996 165.307L92.8502 177.975C92.8669 181.303 93.4399 184.643 91.6856 187.518C90.6269 188.008 90.2893 188.135 89.1609 188.424C88.0263 188.48 86.8229 188.408 85.6806 188.391C77.1552 188.265 68.6259 188.513 60.1029 188.349C55.9243 188.24 55.1993 186.756 55.2859 182.821C55.5436 171.07 55.4016 159.344 55.2796 147.592C55.2693 146.628 55.5373 144.625 55.9726 143.785C56.4646 142.834 58.2929 142.697 59.2116 142.564Z" fill="white"/>
<path d="M251.294 164.664C255.355 164.007 255.591 166.946 255.442 169.922C255.245 173.845 255.397 177.974 255.39 181.926L255.346 194.605C255.358 196.53 255.814 201.522 254.926 202.812C253.697 204.598 245.741 203.997 243.557 204.002L221.631 204.005C220.605 204.027 218.026 204.223 217.32 203.539C215.564 201.84 216.146 197.952 216.187 195.782C216.236 192.739 216.258 189.696 216.255 186.653L216.19 174.65C216.044 163.394 214.928 164.907 225.673 164.845L241.633 164.833C244.683 164.828 248.281 164.892 251.294 164.664Z" fill="white"/>
<path d="M273.389 216.05C283.077 215.558 293.738 216.701 303.515 216.056C305.166 215.947 307.962 215.998 309.48 216.628C309.895 217.376 310.138 219.336 310.145 220.206C310.21 229.462 310.074 238.723 310.203 247.979C310.238 250.439 310.94 254.632 307.872 255.275C306.906 255.323 305.925 255.301 304.957 255.297C294.869 255.259 284.749 255.373 274.665 255.283C271.915 255.258 270.8 254.402 270.897 251.658C271.273 241.08 270.945 230.459 270.779 219.878C270.767 219.075 270.936 217.864 271.3 217.147C271.681 216.439 272.673 216.239 273.389 216.05Z" fill="white"/>
<path d="M218.322 216.061C219.046 216.016 219.765 216.036 220.49 216.058C224.745 216.189 229.005 216.157 233.262 216.156L245.592 216.125C248.108 216.095 250.751 215.949 253.246 216.029C255.704 217.483 255.474 217.466 255.419 220.266C255.398 221.303 255.379 222.487 255.374 223.533L255.35 246.199C255.356 247.489 255.412 248.796 255.458 250.084C255.537 252.296 256.003 253.702 253.769 254.971C253.116 255.159 252.443 255.266 251.764 255.289C245.041 255.554 237.526 255.155 230.7 255.325C226.894 255.42 222.046 255.408 218.246 255.167C217.435 255.115 217.161 254.797 216.741 254.141C216.426 253.585 216.097 252.718 216.111 252.072C216.229 246.572 216.228 241.063 216.221 235.563C216.225 232.373 216.211 229.183 216.181 225.993C216.15 223.482 215.918 219.698 216.395 217.377L216.526 217.253C217.212 216.595 217.376 216.343 218.322 216.061Z" fill="white"/>
<path d="M163.813 216.051C165.503 215.964 167.998 216.094 169.752 216.119C172.917 216.148 176.082 216.156 179.247 216.144L190.361 216.105C192.93 216.077 196.908 215.858 199.289 216.343C200.44 217.239 200.638 218.615 200.629 220.008C200.558 230.465 200.595 240.924 200.637 251.38C200.643 252.835 200.092 254.72 198.604 255.258C194.378 255.565 188.017 255.185 183.553 255.304C177.599 255.286 171.63 255.378 165.678 255.298C164.512 255.282 161.736 255.03 161.507 253.567C161.053 250.667 161.491 247.338 161.5 244.322L161.471 226.502C161.444 223.937 160.962 219.833 161.59 217.249C161.728 216.677 163.212 216.235 163.813 216.051Z" fill="white"/>
<path d="M163.462 164.823C165.81 164.617 168.397 164.827 170.769 164.819C173.055 164.812 175.358 164.828 177.645 164.835C184.272 164.866 190.907 164.749 197.533 164.811C199.015 164.824 200.144 165.191 200.386 166.809C200.778 169.417 200.58 172.11 200.567 174.75L200.562 187.962C200.571 190.807 200.594 193.659 200.66 196.502C200.728 199.413 201.023 201.251 199.327 203.732C198.653 203.847 197.923 203.922 197.24 204.007C192.174 203.984 165.595 204.514 162.713 203.501C162.158 203.306 161.818 203.134 161.573 202.58C161.36 202.101 161.265 201.544 161.258 201.022C161.237 199.323 161.408 197.605 161.455 195.905C161.53 193.24 161.498 190.568 161.495 187.903C161.489 183.356 161.521 178.804 161.454 174.257C161.428 172.487 161.25 170.719 161.271 168.949C161.28 168.101 161.252 166.85 161.572 166.06C161.867 165.333 162.79 165.066 163.462 164.823Z" fill="white"/>
<path d="M72.9754 74.8168C74.7341 74.6366 77.9608 75.8407 78.5021 77.5059C79.4301 80.3607 79.0368 85.0282 79.0221 88.0592L78.9981 106.208C78.9988 107.357 78.5898 114.729 79.4294 115.119C83.2864 116.907 89.1251 113.746 92.5811 117.295L92.7578 117.478C92.7854 117.795 92.8114 118.111 92.8351 118.428C93.0678 121.517 94.2971 130.814 89.5631 130.9C85.0421 130.981 80.3654 130.946 75.8298 130.968C72.2928 130.942 68.7551 130.942 65.2181 130.969C62.7384 130.985 59.4578 131.143 57.0898 130.681C56.5764 130.182 56.1161 129.694 55.7868 129.046C54.8681 127.239 54.9451 119.465 55.6994 117.523C57.2571 113.512 65.3398 116.942 68.3718 115.33C68.7771 115.115 69.0591 114.74 69.1468 114.292C69.4491 112.748 69.0418 109.99 69.0318 108.293C69.0074 104.261 68.6371 80.3155 69.3298 78.4254C70.0588 76.4359 71.0918 75.6836 72.9754 74.8168Z" fill="white"/>
<path d="M0 268.463C7.5801 267.462 20.6508 268.007 28.6923 268.011L81.9913 268.027L261.356 267.93L303.006 267.977C308.048 267.988 315.503 268.23 320.431 267.768C324.612 266.607 327.033 260.028 330.045 257.475C332.53 255.369 338.79 256.053 341.957 256.065L357.37 256.09L381.29 256.068C387.727 256.062 393.58 255.974 400 256.35V260.85C399.42 261.003 398.653 261.163 398.317 261.654C396.367 264.5 394.493 267.723 392.703 270.66L382.613 286.995L350.757 338.443C347.487 343.824 344.177 349.183 340.83 354.517C339.14 357.245 337.553 360.082 335.65 362.673C335.297 363.154 334.81 363.492 334.29 363.767C334.16 363.841 334.033 363.915 333.907 363.989C331.86 363.622 326.042 363.706 323.762 363.705L305.871 363.707L240.204 363.708L109.326 363.709L66.769 363.706C57.5907 363.705 48.273 363.516 39.1267 364C38.2833 363.621 37.5607 363.39 37.1667 362.549C36.0523 360.168 35.1763 357.542 34.1807 355.101L26.4703 336.097L7.813 290.03C6.2366 286.136 4.68717 282.208 3.13388 278.305C2.51804 276.757 2.13101 275.242 1.46999 273.676C0.883717 273.222 0.802283 273.34 0 273.241V268.463ZM269.326 308.562C273.644 308.069 276.752 304.172 276.278 299.845C275.803 295.518 271.926 292.39 267.603 292.846C263.254 293.305 260.107 297.217 260.584 301.57C261.061 305.924 264.981 309.059 269.326 308.562ZM308.682 308.55C312.655 308.039 315.614 304.628 315.565 300.617C315.538 298.341 314.531 296.187 312.803 294.708C311.075 293.229 308.794 292.569 306.544 292.896C302.257 293.519 299.274 297.487 299.861 301.785C300.448 306.082 304.386 309.102 308.682 308.55Z" fill="white"/>
</svg>
