<svg width="400" height="400" viewBox="0 0 400 400" fill="none" xmlns="http://www.w3.org/2000/svg">
<g clip-path="url(#clip0_92_20)">
<path d="M14.53 112.126C18.1623 110.568 22.9209 109.301 26.8086 107.857C36.4215 104.307 45.9161 100.548 55.6265 97.2373C58.5928 96.2257 61.8918 95.693 64.7435 94.6333C76.9128 90.1103 89.1351 85.731 101.238 81.0437C105.118 79.5407 109.191 78.273 113.131 76.9307C135.382 70.5787 156.406 60.3853 178.68 54.114C185.493 51.878 192.174 48.8937 199.08 47.015C199.757 46.8307 202.74 47.1693 203.466 47.413C211.997 50.2783 219.856 53.6423 228.6 55.904C236.839 58.0353 245.056 62.375 253.26 64.847C258.925 66.6753 264.42 69.31 270.025 71.1463C287.443 76.8533 304.624 82.8383 321.816 89.212C324.288 90.1263 326.686 91.3387 329.198 92.1733C335.107 94.4587 340.957 95.8667 346.853 97.901C351.987 99.663 357.103 101.474 362.203 103.332C368.217 105.583 374.11 108.089 380.257 109.946C381.46 110.31 386.497 112.074 386.797 113.051C388.233 117.714 387.477 125.011 387.473 129.878L387.42 161.599L387.407 335.723L387.4 377.407C387.457 382.093 387.493 386.777 387.503 391.463C387.5 393.413 387.457 398.13 387.17 400H336.16C336.03 393.567 336.137 386.877 336.137 380.417L336.14 344.177L336.133 234.497V193.484C336.123 190.357 336.133 187.229 336.157 184.102C336.19 181.486 336.39 178.272 335.94 175.741C334.493 174.32 329.583 174.801 327.459 174.808L314.09 174.84L267.581 174.849L105.638 174.841L79.7021 174.827C77.3328 174.825 66.3655 174.45 65.0485 175.456C63.9928 178.415 64.6628 185.305 64.6828 188.729L64.6055 209.785L64.5745 340.167L64.5735 379.787C64.5758 385.33 64.9168 394.807 64.4441 400H13.4789C13.1631 394.903 13.3765 389.063 13.3976 383.887L13.3962 358.943L13.3965 276.367L13.3943 168.656L13.4086 133.374C13.4131 128.039 13.3549 122.679 13.3799 117.346C13.389 115.384 13.8167 113.936 14.53 112.126ZM237.744 148.867C238.944 148.693 239.44 148.179 239.461 146.908C239.518 143.421 239.436 139.926 239.437 136.436C239.488 130.267 239.571 124.099 239.688 117.932C239.136 117.483 238.748 117.187 238.268 116.667C230.467 116.942 222.071 116.783 214.219 116.777L176.465 116.771C172.355 116.764 167.999 116.602 163.939 116.676C163.107 116.782 162.392 116.794 161.67 117.195C161.129 118.214 161.215 146.315 161.69 148.748C164.347 148.978 167.857 148.87 170.599 148.858L185.451 148.773L215.615 148.823C222.937 148.823 230.459 148.669 237.744 148.867Z" fill="white"/>
<path d="M84.0517 400C83.7287 391.327 83.994 381.03 83.9967 372.257L83.9827 321.185L83.988 246.882C83.9887 242.139 83.6883 208.661 84.443 207.141C86.5923 206.34 91.806 206.739 94.337 206.745L110.47 206.776C115.863 206.814 121.23 206.734 126.62 206.675C128.614 206.653 129.014 207.097 130.066 208.667C129.132 214.498 129.445 221.877 129.349 227.931C129.302 230.851 129.039 235.849 129.154 238.495L129.405 238.638C130.372 239.179 131.093 239.408 132.194 239.52C137.029 240.011 141.972 239.484 146.816 239.458C148.626 239.448 152.809 240.038 154.202 239.564C154.682 239.401 154.896 239.097 155.095 238.647C155.824 236.994 155.528 220.03 155.428 217.05C155.342 214.497 154.845 211.581 155.207 209.062C155.327 208.231 155.508 207.22 156.386 206.89C157.185 206.591 193.184 206.636 197.501 206.72C198.003 206.73 198.723 206.738 199.158 207.015C199.779 207.409 200.422 208.104 200.52 208.854C200.812 211.095 199.976 213.684 199.985 215.995L199.973 279.722C200 283.859 199.978 287.996 199.908 292.132C199.851 295.192 199.393 299.768 200.254 302.666C200.361 303.028 202.933 303.345 203.473 303.357C212.969 303.567 222.46 303.239 231.964 303.455C235.948 303.546 240.333 302.932 244.268 303.626C246.039 303.938 245.514 309.543 245.501 310.988L245.337 325.96C245.322 328.302 244.946 333.977 246.173 335.677C246.699 336.03 247.213 336.097 247.833 336.143C252.512 336.493 257.474 336.133 262.186 336.12C264.586 336.113 267.502 336.513 269.829 336.063C270.411 335.95 270.828 335.807 271.143 335.277C272.171 333.543 271.628 318.813 271.518 316.175C271.379 312.875 270.777 308.213 271.371 305.041C271.488 304.416 271.63 304.057 272.124 303.656C275.169 303.072 283.058 303.452 286.711 303.439L301.908 303.419C305.818 303.382 312.673 302.915 316.228 303.752C317.04 304.563 317.025 306.373 317.021 307.489L316.643 366.113L316.659 387.557C316.668 391.023 316.845 396.663 316.554 400H84.0517ZM129.372 304.239C128.988 306.882 129.38 315.095 129.435 318.183C129.498 321.7 128.933 332.672 129.576 335.35C132.115 336.76 149.795 336.133 153.933 336.19C155.422 335.827 155.608 334.347 155.58 332.929C155.401 324.028 155.46 315.142 155.668 306.241C155.699 304.902 155.493 303.976 154.006 303.8C148.101 303.097 141.922 303.655 135.96 303.437C134.407 303.381 132.772 303.297 131.299 303.348C130.653 303.619 129.967 303.879 129.372 304.239ZM105.774 271.368C105.037 271.447 103.984 271.524 103.605 272.176C102.879 273.425 103.14 280.777 103.284 281.897C103.307 282.083 103.334 282.268 103.366 282.452L104.456 283.963C105.98 284.056 107.58 284.091 109.106 284.052C115.312 283.895 121.631 284.205 127.824 283.955C128.601 283.649 128.829 283.553 129.538 283.125C129.959 280.866 129.684 275.421 129.844 272.458C127.701 271.458 125.856 271.208 123.482 271.373C117.644 271.779 111.559 271.109 105.774 271.368ZM104.629 368.063C102.827 369.243 103.187 372.39 103.203 374.193C103.216 375.747 102.696 381.687 105.064 381.49C111.809 380.93 121.937 382.337 128.329 381.4C128.909 381.04 129.809 380.493 129.77 379.84C129.68 378.343 130.05 369.76 129.519 368.92C127.374 367.63 123.708 368.213 121.251 368.143C115.831 367.99 110.012 368.36 104.629 368.063ZM224.217 368.057L221.021 368.223C220.474 368.84 220.187 369.143 219.749 369.833C219.791 371.94 219.704 379.073 220.311 380.517C221.499 381.543 223.308 381.51 224.808 381.507C230.326 381.5 235.792 381.413 241.309 381.63C242.62 381.687 243.826 381.96 244.743 381.143C245.399 379.613 246.137 368.633 244.101 368.177C242.781 367.88 237.968 368.15 236.317 368.153C232.283 368.153 228.25 368.12 224.217 368.057Z" fill="white"/>
<path d="M0 70.8617C5.12277 70.1283 11.671 67.177 16.6068 65.3243C20.3613 63.8187 24.2897 62.5533 28.0786 61.1813C34.4037 58.6693 40.0543 56.2873 46.7433 54.8453C51.3087 53.8613 57.2073 51.1047 61.6883 49.442L98.694 35.849C100.633 35.1557 102.86 34.9323 104.749 34.3217C107.901 33.3034 111.117 32.1519 114.254 31.0769C116.462 30.3204 118.81 29.1708 121.058 28.326L145.329 19.397C149.429 17.9173 153.699 16.3559 157.825 14.9845C162.473 13.5924 167.336 12.331 171.878 10.6204C178.465 8.1398 184.867 5.3538 191.692 3.5237C193.141 3.13516 195.343 2.25409 196.745 2.14194C197.718 2.25318 202.911 2.2566 204.125 2.22679C205.852 2.44076 207.973 3.07713 209.662 3.5808C220.099 6.69257 229.897 11.6176 240.514 14.2786C241.919 14.6307 243.524 15.1119 244.881 15.5965L281.048 28.83C286.096 30.7072 290.954 33.0083 296.222 34.2947C298.124 34.7593 300.272 35.165 302.092 35.8287L340.797 50.034C343.937 51.1943 346.963 52.514 350.08 53.719C352.937 54.8243 356.787 55.1257 359.553 56.1477L385.203 65.567C389.68 67.21 395.14 70.1027 400 70.5277V102.403C394.663 101.984 390.253 99.3283 385.223 97.654C382.007 96.5833 378.857 95.8797 375.6 94.9807C369.337 92.8173 362.97 90.2017 356.723 87.9073L270.841 57.0683C267.443 55.884 263.822 55.224 260.521 54.061C248.25 49.7367 236.223 44.9037 223.899 40.7327C217.741 38.6483 212.135 35.4497 205.469 34.489C201.325 33.7423 199.718 33.0887 195.384 34.575C187.695 36.0953 181.063 39.2353 173.806 41.9373L154.02 49.212C143.592 53.103 133.11 56.157 122.592 59.7397C120.495 60.454 118.388 61.5063 116.295 62.2917L90.1947 71.951C85.0893 73.8103 80.482 75.0597 75.4223 76.6737C63.1193 80.5983 51.15 85.809 38.8827 89.8743C35.656 90.9843 32.4974 92.4963 29.1823 93.6527C25.2556 95.023 21.7377 95.897 17.7568 96.9953C12.605 98.4163 5.33417 102.723 0 102.744V70.8617Z" fill="white"/>
<path d="M196.867 0H204.91L204.125 2.22678C202.911 2.2566 197.718 2.25318 196.745 2.14193C196.677 1.506 196.805 0.659847 196.867 0Z" fill="url(#paint0_linear_92_20)"/>
</g>
<defs>
<linearGradient id="paint0_linear_92_20" x1="201.932" y1="1.80591" x2="198.789" y2="0.42561" gradientUnits="userSpaceOnUse">
<stop stop-color="white" stop-opacity="0.862745"/>
<stop offset="1" stop-color="white" stop-opacity="0.945098"/>
</linearGradient>
<clipPath id="clip0_92_20">
<rect width="400" height="400" fill="white"/>
</clipPath>
</defs>
</svg>
